<?xml version="1.0" encoding="utf-8"?>
<!-- Generator: Adobe Illustrator 15.1.0, SVG Export Plug-In . SVG Version: 6.00 Build 0)  -->
<!DOCTYPE svg PUBLIC "-//W3C//DTD SVG 1.1//EN" "http://www.w3.org/Graphics/SVG/1.1/DTD/svg11.dtd">
<svg version="1.1" id="Layer_1" xmlns="http://www.w3.org/2000/svg" xmlns:xlink="http://www.w3.org/1999/xlink" x="0px" y="0px"
	 width="391.867px" height="108.65px" viewBox="0 0 391.867 108.65" style="enable-background:new 0 0 391.867 108.65;"
	 xml:space="preserve">
<style type="text/css">
<![CDATA[
	.st0{enable-background:new    ;}
	.st1{fill:#274E66;}
	.st2{fill:#35B0E5;}
]]>
</style>
<g>
	<g class="st0">
		<path class="st1" d="M137.469,41.376c0.334-0.062,0.751-0.105,1.249-0.138c0.499-0.028,0.962-0.044,1.385-0.044
			c0.426,0,0.855,0.016,1.295,0.044c0.439,0.031,0.84,0.076,1.203,0.138l5.586,27.198l6.721-27.198
			c0.361-0.062,0.762-0.105,1.201-0.138c0.439-0.028,0.855-0.044,1.25-0.044c0.363,0,0.771,0.016,1.225,0.044
			c0.455,0.031,0.848,0.076,1.182,0.138l6.765,27.471l5.676-27.471c0.335-0.062,0.689-0.105,1.069-0.138
			c0.378-0.028,0.748-0.044,1.112-0.044c0.426,0,0.854,0.016,1.294,0.044c0.438,0.031,0.824,0.076,1.157,0.138l-7.855,32.646
			c-0.363,0.062-0.789,0.105-1.272,0.137c-0.486,0.03-0.923,0.046-1.317,0.046c-0.425,0-0.893-0.016-1.407-0.046
			c-0.516-0.03-0.984-0.075-1.408-0.137l-6.447-25.563l-6.538,25.563c-0.425,0.062-0.886,0.105-1.385,0.137
			c-0.5,0.03-0.962,0.046-1.386,0.046c-0.363,0-0.781-0.016-1.248-0.046c-0.471-0.03-0.886-0.075-1.249-0.137L137.469,41.376z"/>
		<path class="st1" d="M183.057,54.271h-2.951c-0.062-0.242-0.105-0.521-0.136-0.839c-0.031-0.318-0.045-0.629-0.045-0.932
			s0.014-0.612,0.045-0.932c0.029-0.316,0.075-0.598,0.136-0.839h7.356v23.292c-0.333,0.062-0.706,0.105-1.114,0.137
			c-0.408,0.03-0.779,0.046-1.112,0.046c-0.305,0-0.658-0.016-1.067-0.046c-0.41-0.03-0.779-0.075-1.113-0.137L183.057,54.271
			L183.057,54.271z M182.057,45.599c-0.061-0.363-0.099-0.755-0.111-1.18c-0.017-0.423-0.022-0.802-0.022-1.135
			s0.006-0.71,0.022-1.136c0.014-0.423,0.052-0.802,0.111-1.135c0.394-0.06,0.819-0.104,1.273-0.136
			c0.454-0.029,0.847-0.046,1.18-0.046c0.332,0,0.727,0.017,1.181,0.046c0.454,0.03,0.862,0.076,1.226,0.136
			c0.062,0.333,0.1,0.712,0.114,1.135c0.014,0.426,0.021,0.803,0.021,1.136s-0.009,0.712-0.021,1.135
			c-0.016,0.425-0.054,0.816-0.114,1.18c-0.364,0.063-0.765,0.106-1.202,0.138c-0.439,0.03-0.827,0.045-1.157,0.045
			c-0.364,0-0.771-0.015-1.226-0.045C182.877,45.707,182.45,45.659,182.057,45.599z"/>
		<path class="st1" d="M194.772,50.73c0.331-0.062,0.658-0.105,0.975-0.138c0.319-0.029,0.644-0.046,0.978-0.046
			c0.332,0,0.644,0.017,0.931,0.046c0.286,0.03,0.598,0.076,0.932,0.138c0.091,0.454,0.183,1.066,0.271,1.839
			c0.092,0.771,0.137,1.415,0.137,1.93c0.303-0.515,0.688-1.028,1.157-1.543c0.468-0.516,1.007-0.978,1.612-1.386
			c0.604-0.408,1.301-0.742,2.087-0.999c0.788-0.257,1.647-0.386,2.588-0.386c2.663,0,4.631,0.765,5.901,2.293
			c1.271,1.528,1.908,3.79,1.908,6.788v14.757c-0.336,0.062-0.713,0.105-1.136,0.137c-0.427,0.03-0.803,0.046-1.135,0.046
			c-0.336,0-0.705-0.016-1.115-0.046c-0.407-0.03-0.78-0.075-1.112-0.137V60.494c0-2.15-0.334-3.731-0.998-4.746
			c-0.666-1.016-1.725-1.521-3.18-1.521c-0.848,0-1.648,0.152-2.408,0.454c-0.754,0.304-1.424,0.773-1.998,1.408
			s-1.037,1.461-1.385,2.476c-0.349,1.015-0.521,2.232-0.521,3.655v11.805c-0.333,0.062-0.704,0.104-1.114,0.139
			c-0.408,0.027-0.778,0.046-1.11,0.046c-0.334,0-0.712-0.019-1.137-0.046c-0.425-0.031-0.804-0.077-1.135-0.139V50.73H194.772z"/>
		<path class="st1" d="M236.544,69.982c0.242,0.423,0.455,0.953,0.635,1.59c0.183,0.636,0.287,1.286,0.316,1.951
			c-1.785,0.697-3.828,1.045-6.129,1.045c-3.877,0-6.796-1.097-8.765-3.293c-1.968-2.193-2.951-5.151-2.951-8.877
			c0-1.724,0.242-3.329,0.728-4.813c0.483-1.48,1.203-2.77,2.156-3.858c0.952-1.09,2.141-1.953,3.564-2.588
			c1.421-0.635,3.072-0.953,4.949-0.953c1.271,0,2.391,0.076,3.359,0.228c0.969,0.15,1.893,0.394,2.771,0.727
			c0,0.515-0.067,1.112-0.205,1.794c-0.136,0.681-0.325,1.278-0.565,1.794c-1.482-0.515-3.18-0.772-5.087-0.772
			c-2.331,0-4.073,0.772-5.222,2.315c-1.148,1.544-1.725,3.589-1.725,6.131c0,2.905,0.651,5.034,1.953,6.379
			c1.301,1.35,3.088,2.021,5.356,2.021c0.907,0,1.749-0.061,2.521-0.183C234.977,70.498,235.757,70.286,236.544,69.982z"/>
		<path class="st1" d="M251.483,74.568c-1.813,0-3.405-0.312-4.767-0.932c-1.362-0.62-2.496-1.476-3.404-2.564
			c-0.91-1.09-1.582-2.376-2.021-3.859c-0.438-1.481-0.658-3.087-0.658-4.813c0-1.724,0.221-3.329,0.658-4.813
			c0.439-1.48,1.113-2.77,2.021-3.858s2.043-1.953,3.404-2.588s2.953-0.953,4.767-0.953c1.817,0,3.405,0.318,4.769,0.953
			c1.362,0.635,2.498,1.498,3.406,2.588c0.907,1.09,1.579,2.375,2.02,3.858c0.438,1.484,0.658,3.09,0.658,4.813
			c0,1.728-0.221,3.332-0.658,4.813c-0.439,1.483-1.113,2.771-2.02,3.859c-0.906,1.09-2.045,1.944-3.406,2.564
			C254.889,74.256,253.3,74.568,251.483,74.568z M251.483,70.981c2.089,0,3.634-0.756,4.634-2.271
			c0.996-1.515,1.498-3.617,1.498-6.312s-0.502-4.791-1.498-6.289c-0.998-1.498-2.543-2.248-4.634-2.248
			c-2.088,0-3.625,0.75-4.606,2.248c-0.984,1.498-1.479,3.595-1.479,6.289c0,2.695,0.493,4.799,1.479,6.312
			C247.859,70.225,249.395,70.981,251.483,70.981z"/>
		<path class="st1" d="M279.406,41.376c1.03-0.121,2.271-0.234,3.725-0.341c1.453-0.105,2.875-0.159,4.27-0.159
			c5.721,0,9.995,1.454,12.828,4.358c2.83,2.905,4.245,7.084,4.245,12.532c0,5.692-1.445,9.914-4.336,12.668
			c-2.894,2.756-7.197,4.133-12.917,4.133c-1.424,0-2.831-0.056-4.225-0.158c-1.396-0.106-2.588-0.235-3.588-0.387V41.376H279.406z
			 M284.041,70.21c0.422,0.062,0.944,0.111,1.563,0.158c0.621,0.046,1.277,0.066,1.977,0.066c1.785,0,3.412-0.203,4.881-0.61
			c1.469-0.411,2.733-1.1,3.791-2.066c1.06-0.969,1.877-2.28,2.451-3.927c0.575-1.652,0.865-3.718,0.865-6.2
			c0-2.271-0.29-4.207-0.865-5.813c-0.574-1.604-1.384-2.913-2.428-3.928c-1.043-1.014-2.292-1.748-3.747-2.202
			c-1.455-0.455-3.058-0.681-4.813-0.681c-0.574,0-1.2,0.007-1.883,0.021c-0.683,0.017-1.279,0.067-1.793,0.159L284.041,70.21
			L284.041,70.21z"/>
		<path class="st1" d="M311.147,41.376c1.028-0.121,2.271-0.234,3.724-0.341c1.452-0.105,2.875-0.159,4.268-0.159
			c5.725,0,9.997,1.454,12.828,4.358c2.83,2.905,4.246,7.084,4.246,12.532c0,5.692-1.445,9.914-4.338,12.668
			c-2.893,2.756-7.195,4.133-12.916,4.133c-1.424,0-2.832-0.056-4.224-0.158c-1.396-0.106-2.589-0.235-3.588-0.387V41.376
			L311.147,41.376z M315.779,70.21c0.424,0.062,0.945,0.111,1.564,0.158c0.619,0.046,1.277,0.066,1.976,0.066
			c1.785,0,3.412-0.203,4.882-0.61c1.471-0.411,2.732-1.1,3.791-2.066c1.059-0.969,1.877-2.28,2.45-3.927
			c0.578-1.652,0.865-3.718,0.865-6.2c0-2.271-0.287-4.207-0.865-5.813c-0.573-1.604-1.384-2.913-2.428-3.928
			c-1.043-1.014-2.291-1.748-3.746-2.202c-1.454-0.455-3.06-0.681-4.813-0.681c-0.574,0-1.201,0.007-1.884,0.021
			c-0.682,0.017-1.278,0.067-1.795,0.159v25.021L315.779,70.21L315.779,70.21z"/>
		<path class="st1" d="M342.839,41.376c0.332-0.062,0.688-0.105,1.066-0.138c0.381-0.028,0.735-0.044,1.068-0.044
			s0.688,0.016,1.066,0.044c0.381,0.031,0.733,0.076,1.067,0.138l14.211,24.519V41.376c0.363-0.062,0.741-0.105,1.136-0.138
			c0.394-0.028,0.788-0.044,1.182-0.044c0.334,0,0.68,0.016,1.044,0.044c0.364,0.031,0.712,0.076,1.045,0.138v32.646
			c-0.333,0.062-0.688,0.105-1.068,0.137c-0.38,0.03-0.735,0.046-1.067,0.046c-0.334,0-0.688-0.016-1.067-0.046
			c-0.38-0.03-0.733-0.075-1.067-0.137L347.198,49.64v24.383c-0.335,0.062-0.688,0.105-1.067,0.137
			c-0.379,0.03-0.75,0.046-1.112,0.046c-0.394,0-0.779-0.016-1.158-0.046s-0.718-0.075-1.021-0.137V41.376L342.839,41.376z"/>
		<path class="st1" d="M372.897,69.075c0.998,0.36,2.045,0.681,3.133,0.952c1.091,0.271,2.423,0.407,3.997,0.407
			c2.482,0,4.336-0.507,5.563-1.521c1.227-1.016,1.839-2.386,1.839-4.11c0-0.847-0.13-1.574-0.386-2.181
			c-0.258-0.604-0.643-1.126-1.156-1.564c-0.514-0.437-1.156-0.839-1.928-1.201c-0.772-0.362-1.677-0.757-2.701-1.18l-2.59-1.046
			c-0.879-0.363-1.681-0.764-2.406-1.202c-0.727-0.438-1.356-0.977-1.885-1.612c-0.53-0.636-0.946-1.368-1.248-2.203
			c-0.306-0.831-0.455-1.822-0.455-2.975c0-2.754,0.938-4.91,2.815-6.47c1.878-1.561,4.511-2.338,7.901-2.338
			c1.451,0,2.829,0.122,4.132,0.363c1.302,0.242,2.452,0.546,3.451,0.909c-0.152,1.271-0.485,2.528-0.999,3.769
			c-0.817-0.304-1.764-0.575-2.838-0.817s-2.291-0.363-3.655-0.363c-1.907,0-3.375,0.387-4.403,1.157
			c-1.029,0.772-1.545,1.931-1.545,3.475c0,0.636,0.129,1.202,0.387,1.701c0.258,0.5,0.597,0.939,1.021,1.317
			c0.424,0.379,0.923,0.719,1.499,1.021c0.573,0.305,1.181,0.576,1.815,0.817l2.539,0.998c1.211,0.485,2.289,0.992,3.226,1.521
			s1.739,1.152,2.407,1.861c0.666,0.711,1.172,1.552,1.521,2.521c0.347,0.969,0.522,2.103,0.522,3.403
			c0,3.119-1.075,5.579-3.225,7.381c-2.147,1.803-5.16,2.7-9.035,2.7c-0.938,0-1.787-0.029-2.543-0.092
			c-0.756-0.06-1.461-0.15-2.11-0.271c-0.652-0.121-1.277-0.273-1.886-0.454c-0.605-0.183-1.227-0.379-1.86-0.591
			c0.06-0.666,0.196-1.348,0.407-2.043C372.427,70.421,372.655,69.741,372.897,69.075z"/>
	</g>
</g>
<g>
	<path class="st1" d="M105.388,56.49c-4.09,9.723-11.181,19.438-20.89,27.671c-24.128,20.468-55.243,24.016-69.496,7.931
		C0.749,76.003,8.756,46.374,32.885,25.91C57.014,5.446,88.13,1.898,102.383,17.982c2.68,3.025,4.573,6.53,5.72,10.363h7.708
		c-1.303-5.625-3.833-10.781-7.698-15.142C91.179-5.905,55.344-2.647,28.074,20.48C0.803,43.61-7.577,77.85,9.356,96.964
		c16.932,19.105,52.767,15.852,80.037-7.281c14.328-12.148,23.431-27.368,26.4-41.849L105.388,56.49z"/>
</g>
<path class="st2" d="M65.141,79.949c0.044-7.645,0.081-15.271,0.116-22.894c0.034-7.477,0.068-14.947,0.113-22.42l0.012-2.1h60.91
	l-61.176,52.02L65.141,79.949z"/>
<g>
	<polygon class="st2" points="38.33,32.537 38.134,84.212 61.802,62.713 61.91,32.537 	"/>
</g>
</svg>
